<svg width="500" height="500" viewBox="0 0 500 500" fill="none" xmlns="http://www.w3.org/2000/svg">
<rect width="500" height="500" fill="url(#paint0_linear_1_2)"/>
<path fill-rule="evenodd" clip-rule="evenodd" d="M425 225.129C425 250.319 401.476 268.902 376.971 263.069L257.63 234.667C251.644 233.243 245.406 233.255 239.425 234.702L123.175 262.84C98.6318 268.78 75 250.186 75 224.934L75 146.096C75 123.882 93.5281 106.154 115.721 107.134L248.523 113L384.308 107.103C406.49 106.139 425 123.863 425 146.066L425 225.129ZM285 180C285 163.431 298.431 150 315 150L352 150C368.569 150 382 163.431 382 180C382 196.569 368.569 210 352 210L315 210C298.431 210 285 196.569 285 180ZM148 150C131.431 150 118 163.431 118 180C118 196.569 131.431 210 148 210L185 210C201.569 210 215 196.569 215 180C215 163.431 201.569 150 185 150L148 150Z" fill="url(#paint1_linear_1_2)"/>
<path d="M103.96 387.46C99.928 387.46 96.312 386.34 93.112 384.1C89.912 381.86 87.48 378.916 85.816 375.268C85.496 374.692 85.336 374.18 85.336 373.732C85.336 372.9 85.656 372.26 86.296 371.812C86.936 371.3 87.576 371.044 88.216 371.044C88.856 371.044 89.368 371.204 89.752 371.524C90.2 371.844 90.584 372.228 90.904 372.676C92.12 375.364 93.88 377.54 96.184 379.204C98.488 380.868 101.08 381.7 103.96 381.7C106.904 381.7 109.496 381.092 111.736 379.876C113.976 378.596 115.704 376.836 116.92 374.596C118.2 372.356 118.84 369.796 118.84 366.916V322.18C118.84 321.412 119.128 320.74 119.704 320.164C120.344 319.588 121.08 319.3 121.912 319.3C122.808 319.3 123.512 319.588 124.024 320.164C124.6 320.74 124.888 321.412 124.888 322.18V366.916C124.888 370.884 123.992 374.436 122.2 377.572C120.408 380.644 117.944 383.076 114.808 384.868C111.672 386.596 108.056 387.46 103.96 387.46ZM163.698 387.46C158.77 387.46 154.418 386.404 150.642 384.292C146.866 382.18 143.922 379.236 141.81 375.46C139.698 371.684 138.642 367.268 138.642 362.212C138.642 356.772 139.698 352.132 141.81 348.292C143.986 344.452 146.77 341.508 150.162 339.46C153.618 337.348 157.266 336.292 161.106 336.292C163.922 336.292 166.642 336.804 169.266 337.828C171.954 338.788 174.322 340.26 176.37 342.244C178.482 344.164 180.146 346.532 181.362 349.348C182.642 352.164 183.346 355.428 183.474 359.14C183.41 359.908 183.09 360.58 182.514 361.156C181.938 361.668 181.266 361.924 180.498 361.924H142.002L140.85 356.74H178.674L177.426 357.892V355.972C177.17 352.964 176.21 350.404 174.546 348.292C172.882 346.18 170.866 344.58 168.498 343.492C166.13 342.404 163.666 341.86 161.106 341.86C159.186 341.86 157.202 342.244 155.154 343.012C153.17 343.78 151.346 344.996 149.682 346.66C148.082 348.26 146.77 350.34 145.746 352.9C144.722 355.396 144.21 358.372 144.21 361.828C144.21 365.604 144.978 369.028 146.514 372.1C148.05 375.172 150.258 377.604 153.138 379.396C156.082 381.188 159.57 382.084 163.602 382.084C165.842 382.084 167.858 381.764 169.65 381.124C171.442 380.484 173.01 379.652 174.354 378.628C175.698 377.54 176.818 376.42 177.714 375.268C178.418 374.692 179.122 374.404 179.826 374.404C180.466 374.404 181.01 374.66 181.458 375.172C181.97 375.684 182.226 376.26 182.226 376.9C182.226 377.668 181.906 378.34 181.266 378.916C179.346 381.22 176.85 383.236 173.778 384.964C170.706 386.628 167.346 387.46 163.698 387.46ZM202.139 383.62C202.139 384.388 201.851 385.06 201.275 385.636C200.699 386.212 200.027 386.5 199.259 386.5C198.427 386.5 197.723 386.212 197.147 385.636C196.635 385.06 196.379 384.388 196.379 383.62V318.34C196.379 317.572 196.667 316.9 197.243 316.324C197.819 315.748 198.491 315.46 199.259 315.46C200.091 315.46 200.763 315.748 201.275 316.324C201.851 316.9 202.139 317.572 202.139 318.34V383.62ZM224.264 383.62C224.264 384.388 223.976 385.06 223.4 385.636C222.824 386.212 222.152 386.5 221.384 386.5C220.552 386.5 219.848 386.212 219.272 385.636C218.76 385.06 218.504 384.388 218.504 383.62V318.34C218.504 317.572 218.792 316.9 219.368 316.324C219.944 315.748 220.616 315.46 221.384 315.46C222.216 315.46 222.888 315.748 223.4 316.324C223.976 316.9 224.264 317.572 224.264 318.34V383.62ZM275.223 336.58C276.055 336.58 276.727 336.868 277.239 337.444C277.815 338.02 278.103 338.692 278.103 339.46V381.796C278.103 386.98 277.079 391.332 275.031 394.852C272.983 398.436 270.231 401.124 266.775 402.916C263.319 404.772 259.383 405.7 254.967 405.7C252.215 405.7 249.655 405.38 247.287 404.74C244.983 404.164 243.095 403.396 241.623 402.436C240.855 401.988 240.279 401.444 239.895 400.804C239.511 400.164 239.479 399.492 239.799 398.788C240.119 397.892 240.599 397.284 241.239 396.964C241.943 396.708 242.647 396.74 243.351 397.06C244.439 397.636 246.007 398.34 248.055 399.172C250.103 400.004 252.439 400.42 255.062 400.42C258.583 400.42 261.623 399.684 264.183 398.212C266.807 396.74 268.823 394.596 270.231 391.78C271.639 389.028 272.343 385.732 272.343 381.892V374.98L273.015 377.284C272.055 379.268 270.679 381.028 268.887 382.564C267.159 384.1 265.143 385.316 262.839 386.212C260.599 387.044 258.199 387.46 255.639 387.46C251.799 387.46 248.599 386.692 246.039 385.156C243.543 383.556 241.687 381.38 240.471 378.628C239.255 375.876 238.647 372.644 238.647 368.932V339.46C238.647 338.692 238.903 338.02 239.415 337.444C239.927 336.868 240.631 336.58 241.527 336.58C242.359 336.58 243.031 336.868 243.543 337.444C244.119 338.02 244.407 338.692 244.407 339.46V368.068C244.407 372.548 245.367 376.004 247.287 378.436C249.271 380.868 252.471 382.084 256.887 382.084C259.639 382.084 262.167 381.444 264.471 380.164C266.775 378.82 268.663 377.092 270.135 374.98C271.607 372.804 272.343 370.5 272.343 368.068V339.46C272.343 338.692 272.599 338.02 273.111 337.444C273.687 336.868 274.391 336.58 275.223 336.58ZM307.225 386.5L286.105 317.38H299.545L316.825 374.212L334.393 317.38H347.833L326.713 386.5H307.225ZM355.064 386.5V317.38H384.248C384.92 317.38 385.816 317.412 386.936 317.476C388.088 317.508 389.112 317.604 390.008 317.764C394.136 318.404 397.512 319.764 400.136 321.844C402.792 323.924 404.744 326.548 405.992 329.716C407.24 332.852 407.864 336.356 407.864 340.228C407.864 346.02 406.424 350.98 403.544 355.108C400.664 359.204 396.152 361.732 390.008 362.692L384.248 363.076H368.12V386.5H355.064ZM394.04 386.5L380.408 358.372L393.848 355.78L408.824 386.5H394.04ZM368.12 350.884H383.672C384.344 350.884 385.08 350.852 385.88 350.788C386.68 350.724 387.416 350.596 388.088 350.404C389.848 349.924 391.208 349.124 392.168 348.004C393.128 346.852 393.784 345.588 394.136 344.212C394.52 342.804 394.712 341.476 394.712 340.228C394.712 338.98 394.52 337.668 394.136 336.292C393.784 334.884 393.128 333.62 392.168 332.5C391.208 331.348 389.848 330.532 388.088 330.052C387.416 329.86 386.68 329.732 385.88 329.668C385.08 329.604 384.344 329.572 383.672 329.572H368.12V350.884Z" fill="#E9E9E9"/>
<defs>
<linearGradient id="paint0_linear_1_2" x1="0" y1="0" x2="500" y2="500" gradientUnits="userSpaceOnUse">
<stop stop-color="#000B25"/>
<stop offset="1" stop-color="#002272"/>
</linearGradient>
<linearGradient id="paint1_linear_1_2" x1="409.5" y1="265" x2="90.5" y2="105.5" gradientUnits="userSpaceOnUse">
<stop stop-color="#00A4DC"/>
<stop offset="1" stop-color="#AA5CC3"/>
</linearGradient>
</defs>
</svg>
